<svg width="48" height="48" viewBox="0 0 48 48" fill="none" xmlns="http://www.w3.org/2000/svg">
<path d="M16.0625 31.4375V31.5299C14.7691 31.6244 13.6042 32.0835 12.683 32.8042L9.82987 35H4.16667C3.79487 35 3.5 34.7127 3.5 34.3125V33.125C3.5 32.7786 3.81452 32.4375 4.16667 32.4375H8.92477L11.1825 30.7734L11.193 30.7648C12.6329 29.5783 14.5616 28.875 16.5625 28.875H27.0625C29.6266 28.875 31.5937 30.8741 31.5937 33.4219V33.9219H32.5545L37.0639 30.4796L37.0736 30.4718C38.327 29.4646 40.8206 28.807 42.9186 30.531C43.8542 31.4204 44.5 32.6271 44.5 34.0156C44.5 35.4846 43.7778 36.819 42.6666 37.6174L42.6594 37.6225L35.3633 43.2666L35.362 43.2676C34.2889 44.0864 33.0123 44.5 31.5833 44.5H4.16667C3.79487 44.5 3.5 44.2127 3.5 43.8125V42.625C3.5 42.2786 3.81452 41.9375 4.16667 41.9375H31.5833C32.4225 41.9375 33.1849 41.6786 33.8546 41.1676L33.8555 41.167L41.2182 35.602L41.2201 35.6006C41.6158 35.2985 42 34.7144 42 34.0156C42 33.3868 41.6854 32.8858 41.2387 32.5198C40.872 32.2033 40.3835 32.0684 39.9232 32.0684C39.4576 32.0684 38.9635 32.2057 38.5716 32.5049L38.5706 32.5057L34.1233 35.9193C33.6266 36.2983 32.6186 37 32 37H22.6146C22.3886 37 22.1667 36.7869 22.1667 36.5352V35.9453C22.1667 35.6935 22.3886 35.4805 22.6146 35.4805H26.9896C27.66 35.4805 28.2021 35.2433 28.5748 34.8479C28.9408 34.4596 29.112 33.952 29.112 33.459C29.112 32.9667 28.9414 32.4626 28.5898 32.0763C28.2307 31.6821 27.7068 31.4375 27.0625 31.4375H16.0625Z" fill="#0070B3"/>
<path d="M14.6667 18.0625H19.3333V22.8125C19.3333 23.4805 19.8438 24 20.5 24H25.1667C25.75 24 26.3333 23.4805 26.3333 22.8125V18.0625H31C31.5833 18.0625 32.1667 17.543 32.1667 16.875V12.125C32.1667 11.5312 31.5833 10.9375 31 10.9375H26.3333V6.1875C26.3333 5.59375 25.75 5 25.1667 5H20.5C19.8438 5 19.3333 5.59375 19.3333 6.1875V10.9375H14.6667C14.0104 10.9375 13.5 11.5312 13.5 12.125V16.875C13.5 17.543 14.0104 18.0625 14.6667 18.0625Z" fill="#EA0000"/>
</svg>
