<svg width="32" height="32" viewBox="0 0 32 32" fill="none" xmlns="http://www.w3.org/2000/svg">
<path d="M26.7083 10.25C26.8333 9.75004 26.7083 9.33337 25.9583 9.33337H23.5C22.875 9.33337 22.5833 9.66671 22.4167 10.0417C22.4167 10.0417 21.1667 13.0834 19.4167 15.0834C18.8333 15.625 18.5833 15.8334 18.25 15.8334C18.125 15.8334 17.875 15.625 17.875 15.125V10.25C17.875 9.62504 17.7083 9.33337 17.1667 9.33337H13.3333C12.9167 9.33337 12.7083 9.62504 12.7083 9.91671C12.7083 10.5 13.5833 10.625 13.6667 12.2917V15.9167C13.6667 16.7084 13.5417 16.875 13.2083 16.875C12.375 16.875 10.375 13.7917 9.16667 10.2917C8.91667 9.62504 8.66667 9.33337 8.04167 9.33337H5.58333C4.91667 9.33337 4.75 9.66671 4.75 10.0417C4.75 10.7084 5.58333 13.9167 8.625 18.2084C10.6667 21.125 13.5417 22.6667 16.125 22.6667C17.6667 22.6667 17.875 22.3334 17.875 21.75C17.875 18.9584 17.75 18.6667 18.5 18.6667C18.875 18.6667 19.5 18.875 20.9583 20.2917C22.625 21.9584 22.9167 22.6667 23.8333 22.6667H26.2917C27 22.6667 27.3333 22.3334 27.125 21.625C26.6667 20.2084 23.5417 17.2084 23.375 17C23 16.5417 23.125 16.3334 23.375 15.9167C23.375 15.9167 26.375 11.6667 26.7083 10.25Z" fill="#0070B3"/>
</svg>
