<svg width="379" height="352" viewBox="0 0 379 352" fill="none" xmlns="http://www.w3.org/2000/svg">
<path d="M368.357 196.608C323.927 299.766 281.054 351.12 189.399 351.12C97.7445 351.12 0.495117 319.462 0.495117 227.808C0.495117 136.153 129.646 124.777 189.399 66.7319C304.423 -45.0043 412.788 93.4503 368.357 196.608Z" fill="url(#paint0_radial_1369_40494)"/>
<mask id="mask0_1369_40494" style="mask-type:alpha" maskUnits="userSpaceOnUse" x="0" y="-62" width="376" height="414">
<path d="M368.357 196.608C323.927 299.766 281.054 351.119 189.399 351.119C97.7445 351.119 0.495117 319.462 0.495117 227.808C0.495117 136.153 74.2461 25.3744 133.999 -32.6708C249.023 -144.407 412.788 93.4502 368.357 196.608Z" fill="url(#paint1_radial_1369_40494)"/>
</mask>
<g mask="url(#mask0_1369_40494)">
<path d="M217.693 470.339C217.166 493.1 216.228 515.861 215.057 538.622C213.885 561.061 212.42 583.47 210.78 605.909V605.939C208.729 633.914 210.37 662.475 209.989 690.568C209.696 712.186 209.169 733.805 208.407 755.394L158.081 755.365C158.022 749.975 157.934 744.614 157.817 739.254C157.524 726.423 157.114 713.592 156.587 700.762C155.591 675.101 154.331 649.44 153.511 623.778C153.482 623.193 153.482 622.607 153.452 621.992C152.925 606.32 152.31 590.618 151.607 574.917C151.607 574.712 151.578 574.477 151.578 574.272C151.548 573.686 151.519 573.101 151.49 572.485C151.314 568.824 151.168 565.191 150.992 561.53C150.904 559.772 150.816 557.985 150.728 556.198C150.582 553.035 150.435 549.842 150.259 546.678C150.172 544.686 150.054 542.665 149.966 540.673C149.791 536.894 149.586 533.115 149.41 529.365C149.381 528.78 149.351 528.194 149.322 527.608C148.883 518.79 148.443 510.002 148.004 501.214C147.916 499.427 147.828 497.67 147.74 495.883C147.535 491.899 147.33 487.915 147.154 483.96C147.125 483.375 147.096 482.818 147.066 482.232C146.568 472.419 146.1 462.576 145.602 452.733C145.367 448.046 145.133 443.389 144.928 438.702C144.899 438.116 144.869 437.53 144.84 436.915C144.811 436.271 144.781 435.597 144.752 434.952C144.664 433.195 144.576 431.408 144.489 429.621C143.756 413.978 143.024 398.306 142.35 382.634C142.321 382.048 142.292 381.462 142.262 380.876C142.204 379.441 142.145 377.976 142.086 376.541C141.999 374.783 141.94 372.996 141.852 371.239C141.764 369.1 141.676 366.962 141.588 364.794C141.413 360.429 141.53 355.83 141.969 351.202V351.173C142.526 345.695 143.551 340.158 145.221 334.973C145.309 334.71 145.367 334.475 145.455 334.241C145.631 333.655 145.865 333.069 146.07 332.483C146.158 332.249 146.246 332.015 146.334 331.78C148.179 326.888 150.64 322.377 153.804 318.569C153.833 318.51 153.892 318.452 153.95 318.393C154.712 317.485 155.532 316.606 156.382 315.786C157.466 314.702 158.637 313.736 159.897 312.798C160.131 312.622 160.366 312.476 160.6 312.3C160.952 312.037 161.332 311.802 161.713 311.539C162.123 311.275 162.533 311.041 162.943 310.806C163.734 310.338 164.584 309.927 165.433 309.547C166.576 309.049 167.748 308.58 168.978 308.199C174.544 306.412 179.67 305.914 184.298 306.383C184.738 306.412 185.148 306.471 185.558 306.529C196.397 308.141 204.57 315.376 209.872 325.189C210.34 326.068 210.809 327.006 211.248 327.914C211.6 328.646 211.922 329.378 212.215 330.14C214.969 336.819 216.521 344.347 216.844 351.934C217.136 358.555 217.371 365.175 217.547 371.766C218.367 399.361 218.484 426.955 218.045 454.52C217.927 459.764 217.84 465.066 217.693 470.339Z" fill="#414184"/>
<path d="M267.316 755.394L217.342 755.365C217.049 748.305 216.727 741.245 216.346 734.185C215.291 713.768 214.09 693.028 213.68 672.757C213.68 672.171 213.651 671.585 213.651 670.999C213.241 655.239 212.772 639.509 212.245 623.749C212.215 623.163 212.215 622.577 212.186 621.962C211.629 606.055 211.014 590.149 210.311 574.213C210.282 573.627 210.253 573.041 210.223 572.426C210.048 568.765 209.901 565.132 209.725 561.471C209.637 559.713 209.55 557.926 209.462 556.139C209.227 550.954 208.964 545.799 208.7 540.614C208.671 539.94 208.641 539.237 208.612 538.563C208.466 535.458 208.319 532.382 208.143 529.306C208.114 528.72 208.085 528.134 208.056 527.549C207.616 518.731 207.177 509.943 206.737 501.155C206.65 499.368 206.562 497.611 206.474 495.824C206.269 491.84 206.064 487.856 205.888 483.901C205.859 483.315 205.829 482.759 205.8 482.173C205.302 472.36 204.833 462.517 204.335 452.674C204.101 447.987 203.867 443.33 203.662 438.643C203.632 438.057 203.603 437.471 203.574 436.856C203.544 436.211 203.515 435.538 203.486 434.893C203.398 433.136 203.31 431.349 203.222 429.562C202.49 413.919 201.757 398.247 201.084 382.575C201.054 381.989 201.025 381.403 200.996 380.817C200.937 379.382 200.879 377.917 200.82 376.482C200.732 374.724 200.674 372.937 200.586 371.18C200.498 369.041 200.41 366.903 200.322 364.735C200.146 360.37 200.264 355.771 200.703 351.143V351.114C201.23 345.782 202.226 340.451 203.808 335.383C203.925 334.973 204.072 334.563 204.189 334.153C204.365 333.567 204.599 332.981 204.804 332.395C204.833 332.278 204.892 332.161 204.921 332.073C205.185 331.399 205.449 330.725 205.712 330.052C207.47 325.804 209.725 321.849 212.508 318.481C212.538 318.422 212.596 318.363 212.655 318.305C213.416 317.397 214.237 316.518 215.086 315.698C216.17 314.614 217.342 313.647 218.601 312.71C218.836 312.534 219.07 312.388 219.304 312.212C220.798 311.157 222.41 310.249 224.138 309.458C225.28 308.96 226.452 308.491 227.682 308.111C229.001 307.701 230.289 307.349 231.578 307.056C231.988 306.968 232.399 306.88 232.809 306.792C244.585 304.537 254.076 308.111 261.106 315.024C261.546 315.434 261.956 315.873 262.366 316.313C270.451 325.072 274.962 338.371 275.548 351.875C275.841 358.496 276.075 365.116 276.251 371.707C279.18 472.916 271.945 574.038 269.279 675.188C268.547 701.962 267.932 728.678 267.316 755.394Z" fill="#414184"/>
<path d="M117.773 192.695C115.81 198.817 113.877 204.91 111.826 211.003C109.512 217.858 107.344 224.713 105.382 231.684C104.386 235.229 103.448 238.803 102.599 242.406C101.837 245.599 100.402 249.436 100.402 252.717C98.8493 260.978 97.824 269.415 98.6442 277.763C99.2887 284.354 101.105 290.77 103.097 297.097C107.491 310.923 112.91 324.428 119.326 337.463C121.669 342.268 124.218 347.042 127.879 350.938C129.315 352.462 131.131 353.926 133.24 353.956C136.843 354.014 139.099 350.206 140.446 346.867C152.955 315.405 152.193 280.956 152.662 247.679C152.896 231.216 153.511 215.427 156.968 199.315C160.6 182.325 162.241 164.544 158.198 147.465C157.583 144.829 156.645 141.49 154.859 139.38C153.13 137.33 151.255 137.945 148.766 138.736C143.112 140.523 138.308 144.507 134.822 149.223C130.135 155.551 127.498 163.138 124.95 170.607C122.489 177.931 120.116 185.313 117.773 192.695Z" fill="white"/>
<path d="M128.348 555.114H191.153C191.797 554.704 192.266 554.118 192.413 553.268C193.643 546.56 194.815 539.91 194.756 533.114C194.698 526.142 195.488 519.141 197.158 512.345C198.33 525.908 200.263 539.383 202.929 552.712C203.163 553.883 203.779 554.616 204.628 555.085H290.253C290.253 552.477 290.077 546.384 289.784 538.768C288.964 517.501 287.324 484.253 287.177 480.591C286.386 462.019 285.713 443.476 285.185 424.904C283.603 370.301 283.164 315.639 283.809 261.007C283.955 248.996 284.16 236.986 284.394 224.976C284.511 219.849 284.189 214.635 284.248 209.596C284.306 204.675 286.269 199.783 287.236 194.979C288.261 189.97 287.997 184.99 287.997 179.893C288.056 167.707 287.587 155.521 286.621 143.364C286.416 140.815 286.152 138.149 284.775 136.011C283.516 134.078 281.465 132.789 279.414 131.734C272.12 127.926 264.211 127.282 256.507 124.674C247.924 121.774 239.634 118.171 231.256 114.685C231.168 114.656 231.109 114.627 231.021 114.568C228.151 113.309 225.309 111.99 222.438 110.76C220.154 109.764 218.367 109.852 215.906 109.618C210.077 109.149 204.189 108.739 198.33 109.207C192.325 109.705 187.11 113.514 182.453 117C182.16 117.205 181.867 117.439 181.574 117.644C171.966 124.821 162.24 131.969 150.933 136.363C148.121 137.446 145.25 138.384 142.701 140.024C138.981 142.397 136.374 146.029 134.294 149.838C132.419 153.265 129.871 157.132 128.582 160.735C126.707 166.066 127.703 173.126 128.084 178.662C128.611 186.806 129.549 194.188 129.197 202.419C128.846 210.622 128.523 218.824 128.23 227.026C127.791 238.597 127.41 250.168 127.088 261.768C125.887 303.424 125.389 344.874 125.858 386.793C126.649 443.007 127.791 499.046 128.348 555.114Z" fill="white"/>
<path d="M198.799 212.643C198.594 211.442 197.744 210.358 196.631 209.831C195.752 209.421 194.756 209.245 193.79 209.421C192.764 209.626 192.12 210.27 191.622 211.179C190.802 212.76 190.655 214.782 191.886 216.188C193.233 217.74 195.782 217.975 197.334 216.627C197.979 216.071 198.389 215.25 198.652 214.43C198.77 214.02 198.887 213.581 198.916 213.17C198.945 212.995 198.887 212.819 198.799 212.643Z" fill="#0075BA"/>
<path d="M198.799 268.74C198.594 267.539 197.744 266.455 196.631 265.928C195.752 265.518 194.756 265.342 193.79 265.518C192.764 265.723 192.12 266.368 191.622 267.276C190.802 268.857 190.655 270.879 191.885 272.285C193.233 273.837 195.781 274.101 197.334 272.724C197.978 272.168 198.389 271.347 198.652 270.527C198.769 270.117 198.887 269.678 198.916 269.268C198.945 269.092 198.887 268.916 198.799 268.74Z" fill="#0075BA"/>
<path d="M198.799 324.867C198.594 323.666 197.744 322.582 196.631 322.055C195.752 321.645 194.756 321.469 193.79 321.645C192.764 321.85 192.12 322.494 191.622 323.402C190.802 324.984 190.655 327.005 191.885 328.411C193.233 329.964 195.781 330.198 197.334 328.851C197.978 328.294 198.389 327.474 198.652 326.654C198.769 326.244 198.887 325.804 198.916 325.394C198.945 325.189 198.887 325.013 198.799 324.867Z" fill="#0075BA"/>
<path d="M355.194 346.841L232.952 256.505L171.393 339.806L293.635 430.142L355.194 346.841Z" fill="#EA5B13"/>
<path d="M346.308 345.288L235.963 263.744L179.209 340.542L289.554 422.087L346.308 345.288Z" fill="#EFEFEF"/>
<path d="M230.723 289.133L226.388 285.929L197.61 324.875L201.946 328.079L230.723 289.133Z" fill="#005385"/>
<path d="M328.1 237.367C323.531 223.365 318.521 209.479 313.717 195.682C306.452 174.884 299.891 147.963 282.022 133.14C275.431 131.207 268.605 131.998 263.596 137.945C256.273 146.586 256.507 160.94 258.616 171.398C259.173 174.21 259.905 176.993 260.725 179.746C271.3 215.367 283.603 250.666 294.676 286.141C296.2 291.003 297.957 292.38 302.381 291.208C306.775 290.037 312.165 287.693 316.764 286.141C321.89 284.412 333.842 283.006 335.687 277.177C336.566 274.452 336.01 271.523 335.424 268.74C333.11 258.253 330.649 247.795 328.1 237.367Z" fill="white"/>
<path d="M257.942 343.791C261.018 343.645 267.375 349.093 269.279 350.294C271.095 351.437 273.117 352.286 273.204 354.542C273.322 356.944 270.861 359.785 269.484 361.543C266.233 365.644 262.893 369.657 259.436 373.553C257.532 375.721 254.134 382.165 250.971 379.822C247.748 377.449 244.995 374.373 243.061 370.858C240.454 366.083 243.589 364.443 246.547 360.811C250.15 356.387 253.197 351.495 255.54 346.281C255.892 345.49 256.273 344.67 256.947 344.113C257.239 343.908 257.562 343.791 257.942 343.791Z" fill="#FFD6BE"/>
<path d="M268.928 376.043C268.283 376.746 267.639 377.419 266.965 378.064C257.298 370.477 248.305 362.04 240.132 352.871C260.022 324.31 278.097 294.987 295.966 265.284C301.414 256.261 317.76 258.605 326.109 262.471C329.595 264.083 332.934 266.485 334.633 269.941C338.763 278.349 334.926 288.338 330.737 295.925C326.138 304.185 319.869 312.329 313.923 319.682C305.75 329.788 297.547 339.894 289.375 350.001C282.578 358.379 276.28 368.163 268.928 376.043Z" fill="white"/>
<path d="M127.498 172.775C127.44 172.277 126.151 172.306 126.209 172.775C127.264 182.324 128.318 191.903 129.402 201.453C129.461 201.951 130.75 201.922 130.691 201.453C129.637 191.903 128.582 182.324 127.498 172.775Z" fill="#BFCCEA"/>
<path d="M128.084 211.823C127.703 227.817 127.323 243.811 126.912 259.776C126.532 275.77 126.151 291.765 125.741 307.73C125.536 316.752 125.301 325.745 125.096 334.768C125.096 335.236 126.385 335.266 126.385 334.768C126.766 318.773 127.147 302.779 127.557 286.814C127.938 270.82 128.319 254.825 128.729 238.86C128.934 229.838 129.168 220.845 129.373 211.823C129.373 211.354 128.084 211.325 128.084 211.823Z" fill="#BFCCEA"/>
<path d="M309.118 276.796C304.9 272.665 298.28 273.515 293.007 274.452C292.157 274.599 292.714 275.243 293.358 275.126C298.163 274.277 304.168 273.398 308.005 277.147C308.327 277.47 309.587 277.235 309.118 276.796Z" fill="#BFCCEA"/>
<path d="M283.369 253.42C279.883 243.372 277.364 233.002 275.87 222.486C274.376 212.028 273.849 201.453 274.347 190.878C274.61 184.902 275.226 178.956 276.134 173.038C276.192 172.599 274.933 172.54 274.845 173.038C273.204 183.584 272.589 194.247 272.999 204.91C273.409 215.514 274.816 226.089 277.188 236.4C278.536 242.2 280.176 247.942 282.139 253.566C282.285 254.035 283.545 253.918 283.369 253.42Z" fill="#BFCCEA"/>
<path d="M231.286 114.745C231.286 114.774 231.286 114.803 231.286 114.803C230.495 120.633 228.561 126.257 226.335 131.706C226.218 131.969 226.13 132.204 226.013 132.467C225.69 133.258 225.368 134.049 225.017 134.84C223.142 139.205 221.121 143.482 219.07 147.788C215.086 156.224 211.395 164.954 207.177 173.361C204.482 178.722 201.611 183.936 198.272 188.857C196.748 191.084 195.196 193.544 193.438 189.619C191.769 185.928 190.509 182.12 189.425 178.224C188.195 173.742 187.257 169.172 186.32 164.631C184.65 156.341 183.01 148.022 181.955 139.644C181.897 139.088 181.809 138.531 181.75 138.004C181.516 135.953 181.281 133.932 181.135 131.881C180.754 127.194 180.578 122.39 181.633 117.791C181.926 117.586 182.219 117.352 182.512 117.147C187.169 113.661 192.384 109.853 198.389 109.355C204.248 108.886 210.106 109.267 215.965 109.765C218.426 109.97 220.213 109.911 222.497 110.907C225.368 112.167 228.21 113.456 231.081 114.715C231.139 114.657 231.198 114.715 231.286 114.745Z" fill="#D9E3F9"/>
<path d="M204.042 140.054C203.867 140.933 203.955 141.841 204.013 142.72C204.863 152.972 205.947 163.196 207.177 173.39C204.482 178.751 201.611 183.965 198.272 188.886C196.748 191.112 195.196 193.573 193.438 189.648C191.769 185.957 190.509 182.149 189.425 178.253C189.572 177.257 189.718 176.261 189.894 175.265C191.622 164.133 193.35 153.002 196.133 142.075C196.338 141.255 196.573 140.405 196.455 139.585C196.338 138.618 195.84 137.769 195.43 136.89C194.874 135.748 194.376 134.459 194.053 133.111C193.936 132.672 193.848 132.232 193.79 131.793C195.782 129.479 197.862 127.253 199.941 125.026C199.678 124.704 199.414 124.382 199.151 124.06C199.502 124.001 199.883 123.942 200.264 123.913C200.322 123.913 200.381 123.913 200.439 123.884C202.519 126.52 204.658 129.127 206.796 131.705C207.148 132.115 207.499 132.555 207.851 132.965C207.704 133.316 207.528 133.697 207.323 134.049C206.884 134.927 206.327 135.777 205.8 136.626C205.038 137.652 204.277 138.765 204.042 140.054Z" fill="#EA5B13"/>
<path d="M226.013 132.467C225.69 133.258 225.368 134.049 225.017 134.84C223.991 135.836 222.937 136.861 221.941 137.886C220.857 138.999 219.802 140.2 218.631 141.226C217.752 141.987 216.551 143.042 215.262 142.749C214.618 142.602 214.237 142.134 213.797 141.665C213.27 141.05 212.713 140.405 212.186 139.79C210.546 137.886 208.905 135.953 207.323 134.019C205.068 131.324 202.842 128.571 200.615 125.846C198.682 127.926 196.719 130.035 194.844 132.174C194.581 132.496 194.317 132.789 194.053 133.111C192.501 134.928 191.007 136.773 189.601 138.677C188.517 140.142 187.316 142.661 185.06 142.017C183.947 141.694 183.01 140.64 182.19 139.878C182.102 139.79 182.043 139.732 181.955 139.644C181.897 139.087 181.809 138.531 181.75 138.003C182.658 138.941 183.625 139.849 184.621 140.669C184.972 140.962 185.441 141.489 185.968 141.343C186.261 141.255 186.525 140.903 186.73 140.698C187.199 140.171 187.58 139.556 187.99 138.97C189.777 136.48 191.739 134.107 193.76 131.764C195.752 129.45 197.832 127.223 199.912 124.997C199.648 124.675 199.385 124.353 199.121 124.03C198.975 123.825 198.799 123.65 198.653 123.444C198.272 122.946 199.502 122.741 199.766 123.093C199.971 123.357 200.176 123.62 200.381 123.884C202.461 126.52 204.599 129.127 206.738 131.705C207.089 132.115 207.441 132.555 207.792 132.965C209.491 135.015 211.219 137.066 212.948 139.087C213.475 139.732 214.032 140.347 214.588 140.991C214.823 141.255 215.057 141.577 215.321 141.841C215.613 142.104 215.701 142.134 216.053 141.958C217.313 141.343 218.338 140.112 219.304 139.116C221.501 136.802 223.728 134.605 226.013 132.467Z" fill="#8FC2FF"/>
<path d="M245.668 127.282C244.878 124.939 244.116 122.595 243.325 120.222C243.179 119.783 241.919 119.9 242.095 120.398C242.798 122.507 243.501 124.587 244.175 126.696C244.526 127.751 244.965 128.835 245.229 129.918C245.522 131.09 245.053 131.823 244.087 132.467C240.454 134.898 236.617 137.095 232.838 139.351C232.662 139.468 232.604 139.615 232.75 139.79C234.127 141.519 235.299 143.394 236.207 145.385C236.617 146.294 237.027 147.26 237.32 148.227C237.73 149.662 236.675 150.541 235.855 151.537C232.838 155.17 229.762 158.802 226.657 162.376C220.535 169.465 214.266 176.466 207.851 183.321C205.829 185.488 203.808 187.627 201.757 189.765C200.732 190.82 199.707 191.904 198.682 192.958C198.008 193.632 197.129 194.482 196.075 194.394C193.204 194.13 191.593 191.171 189.952 189.121C188.107 186.777 186.291 184.375 184.592 181.944C181.193 177.11 178.088 172.043 175.305 166.828C174.017 164.426 172.815 161.995 171.673 159.534C170.589 157.22 168.949 154.496 169.33 151.83C169.652 149.604 171.351 147.905 172.757 146.294C173.782 145.122 176.536 142.603 174.72 141.138C173.577 140.23 172.142 139.527 170.882 138.765C170.179 138.355 169.476 137.916 168.802 137.476C168.011 136.978 167.66 136.422 167.894 135.484C168.597 132.526 170.413 129.596 172.259 127.253C172.64 126.755 171.409 126.55 171.146 126.901C169.447 129.04 168.07 131.383 167.103 133.932C166.722 134.928 166.137 136.187 166.869 137.183C167.572 138.121 168.978 138.677 169.974 139.263C170.589 139.644 171.204 140.025 171.819 140.406C172.435 140.786 173.255 141.138 173.782 141.636C174.749 142.573 172.962 144.39 172.347 145.122C170.97 146.733 169.3 148.256 168.48 150.248C167.484 152.65 168.334 154.965 169.33 157.22C170.472 159.798 171.673 162.317 172.962 164.807C175.511 169.758 178.323 174.562 181.428 179.22C183.39 182.178 185.47 185.078 187.667 187.89C188.78 189.326 189.923 190.732 191.065 192.138C192.325 193.661 194.405 195.946 196.66 195.507C197.803 195.272 198.828 194.276 199.619 193.456C200.761 192.284 201.904 191.083 203.046 189.882C207.616 185.108 212.098 180.274 216.521 175.382C223.552 167.59 230.436 159.651 237.144 151.596C237.789 150.805 238.755 149.955 238.726 148.842C238.697 147.758 238.082 146.587 237.671 145.62C236.734 143.452 235.504 141.46 234.068 139.585C236.031 138.414 237.994 137.242 239.927 136.041C240.982 135.396 242.065 134.723 243.12 134.078C243.969 133.551 244.878 133.053 245.668 132.408C247.397 131.09 246.254 129.04 245.668 127.282Z" fill="#BFCCEA"/>
<path d="M258.704 183.115C258.558 182.178 258.382 181.24 258.206 180.303C257.503 176.729 256.419 173.272 254.134 170.343C252.611 168.41 250.766 166.769 248.891 165.187C246.665 163.313 244.468 161.438 242.241 159.563C242.212 159.534 242.183 159.534 242.153 159.504C242.095 153.382 241.714 147.23 241.04 141.137C240.454 135.747 239.781 130.27 238.287 125.055C237.027 120.661 234.977 116.297 231.373 113.367C227.097 109.852 221.443 108.885 216.082 108.241C209.696 107.479 203.281 107.362 196.895 107.801C196.426 107.655 195.87 107.655 195.547 107.684C183.889 109.764 174.456 117.908 168.48 127.838C165.17 133.345 162.797 139.351 160.952 145.502C158.96 152.064 157.466 158.772 156.294 165.539C155.093 172.482 154.331 179.512 153.951 186.542C153.921 187.216 153.892 187.919 153.833 188.593C152.574 188.827 151.607 189.501 150.963 190.438C150.26 191.288 149.791 192.372 149.586 193.514C149.41 194.335 149.381 195.184 149.41 196.034C149.381 196.414 149.381 196.795 149.439 197.205C149.615 198.289 150.054 199.227 150.758 200.017C151.783 201.424 153.423 202.332 155.181 202.537C157.436 202.83 159.604 202.156 160.893 200.222C162.065 198.523 162.592 196.239 162.094 194.217C162.006 193.895 161.889 193.573 161.772 193.28C161.596 192.313 161.215 191.405 160.571 190.673C159.809 189.823 158.725 189.384 157.7 189.062C157.7 189.062 157.7 189.062 157.671 189.062C157.466 188.974 157.261 188.915 157.056 188.857C157.085 188.066 157.114 187.275 157.173 186.484C157.847 173.8 159.839 161.145 163.237 148.871C166.43 137.329 171.263 125.729 180.403 117.585C184.592 113.865 189.601 110.936 195.108 109.705C195.372 109.705 195.635 109.705 195.811 109.705C201.582 109.178 207.411 109.178 213.182 109.764C218.191 110.262 223.874 110.789 228.034 113.865C231.608 116.502 233.658 120.603 234.947 124.762C236.441 129.596 237.056 134.751 237.642 139.761C238.404 146.352 238.843 153.001 238.902 159.651C238.433 159.622 237.964 159.739 237.584 159.915C229.235 163.723 223.142 171.251 219.597 179.571C219.509 179.776 219.422 180.01 219.334 180.215C217.4 184.961 216.229 190.058 215.496 195.125C215.115 197.82 214.852 200.574 214.676 203.298C214.5 206.052 214.295 208.835 214.354 211.559C214.383 214.313 215.613 217.096 218.631 217.535C219.158 217.623 219.715 217.623 220.242 217.535C220.769 217.945 221.882 217.916 222.351 217.74C224.636 216.861 226.13 214.225 224.812 211.911C224.372 211.149 223.142 211.208 222.439 211.383C221.501 211.618 220.71 212.262 220.3 213.082C220.007 213.2 219.773 213.434 219.773 213.727C219.802 214.196 219.832 214.694 219.832 215.162C219.715 215.367 219.568 215.572 219.392 215.777C219.304 215.748 219.246 215.719 219.246 215.719C218.806 215.484 218.455 215.045 218.221 214.606C217.693 213.639 217.576 212.497 217.576 211.413C217.576 210.153 217.635 208.864 217.693 207.604C217.898 202.742 218.25 197.879 219.07 193.046C219.597 189.853 220.359 186.66 221.384 183.584C221.999 183.613 222.732 183.467 223.083 182.939C225.544 179.16 230.084 177.637 234.391 177.315C239.517 176.934 245.083 177.813 249.477 180.567C251.879 182.061 253.871 184.14 255.189 186.66C255.335 186.923 255.658 187.099 256.039 187.187C256.185 188.534 256.302 189.882 256.419 191.2C256.771 195.477 256.829 199.783 256.624 204.089C256.507 206.491 256.302 208.893 256.039 211.295C255.921 212.379 255.775 213.463 255.218 214.43C255.13 214.606 255.013 214.752 254.896 214.899C254.808 214.459 254.662 214.049 254.369 213.639C254.105 213.17 253.578 212.819 253.08 212.672C252.494 212.496 251.322 212.409 250.883 212.994C249.682 214.518 249.711 216.393 250.912 217.916C251.381 218.502 252.875 218.502 253.431 218.092C253.754 217.887 254.017 217.623 254.222 217.33C254.457 217.33 254.662 217.301 254.837 217.271C257.064 216.92 258.411 215.25 258.909 213.141C259.466 210.827 259.554 208.337 259.7 205.964C259.876 203.445 259.935 200.926 259.905 198.436C259.964 193.339 259.524 188.183 258.704 183.115ZM244.116 176.319C238.58 175.059 232.164 175.001 226.833 177.168C225.515 177.696 224.255 178.37 223.142 179.219C223.376 178.662 223.64 178.106 223.933 177.549C225.368 174.62 227.126 171.866 229.264 169.376C232.223 165.92 235.797 163.049 239.927 161.174C240.015 161.145 240.074 161.086 240.132 161.028C243.12 163.518 246.196 165.949 249.008 168.644C250.356 169.933 251.586 171.339 252.523 172.98C253.49 174.679 254.134 176.553 254.603 178.428C254.632 178.516 254.632 178.604 254.662 178.692C254.955 179.864 255.189 181.006 255.394 182.207C252.377 179.16 248.305 177.256 244.116 176.319Z" fill="#414184"/>
<path d="M162.153 194.276C162.621 196.297 162.094 198.582 160.952 200.281C159.633 202.185 157.466 202.859 155.239 202.595C153.482 202.39 151.871 201.482 150.816 200.076C150.142 199.315 149.674 198.348 149.498 197.264C149.439 196.883 149.439 196.473 149.468 196.092C149.41 195.243 149.468 194.393 149.644 193.573C149.879 192.431 150.318 191.347 151.021 190.497C151.665 189.56 152.632 188.886 153.892 188.652C153.921 187.978 153.95 187.275 154.009 186.601C155.064 186.484 156.147 186.484 157.231 186.513C157.173 187.304 157.143 188.095 157.114 188.886C157.319 188.945 157.524 189.033 157.729 189.091C157.729 189.091 157.729 189.091 157.759 189.091C158.813 189.443 159.897 189.882 160.629 190.702C161.274 191.435 161.655 192.343 161.83 193.309C161.947 193.632 162.065 193.925 162.153 194.276Z" fill="#CFD5E2"/>
<path d="M260.023 198.465C260.052 200.985 259.964 203.504 259.817 205.994C259.671 208.367 259.554 210.857 259.026 213.171C258.528 215.28 257.152 216.92 254.955 217.301C254.779 217.33 254.545 217.36 254.34 217.36C254.134 217.623 253.842 217.887 253.549 218.121C252.992 218.532 251.498 218.532 251.029 217.946C249.828 216.422 249.828 214.548 251 213.024C251.439 212.438 252.611 212.526 253.197 212.702C253.695 212.849 254.222 213.2 254.486 213.669C254.75 214.079 254.925 214.489 255.013 214.928C255.13 214.782 255.218 214.635 255.336 214.46C255.863 213.493 256.039 212.409 256.156 211.325C256.449 208.923 256.654 206.521 256.742 204.119C256.947 199.813 256.859 195.536 256.537 191.23C256.419 189.882 256.302 188.564 256.156 187.217C255.775 187.129 255.423 186.953 255.306 186.689C253.988 184.2 251.996 182.09 249.594 180.596C245.171 177.843 239.634 176.964 234.508 177.345C230.202 177.667 225.661 179.19 223.2 182.969C222.849 183.496 222.117 183.643 221.501 183.614C220.476 186.689 219.715 189.882 219.187 193.075C218.367 197.88 218.016 202.742 217.81 207.634C217.752 208.894 217.693 210.183 217.693 211.442C217.693 212.526 217.781 213.669 218.338 214.635C218.572 215.075 218.924 215.485 219.363 215.749C219.363 215.749 219.451 215.778 219.509 215.807C219.685 215.602 219.832 215.426 219.949 215.192C219.92 214.723 219.89 214.225 219.89 213.757C219.89 213.434 220.125 213.229 220.418 213.112C220.828 212.292 221.619 211.648 222.556 211.413C223.259 211.237 224.489 211.179 224.929 211.94C226.247 214.255 224.753 216.891 222.468 217.77C221.999 217.946 220.886 217.975 220.359 217.565C219.832 217.653 219.275 217.653 218.748 217.565C215.731 217.125 214.5 214.343 214.471 211.589C214.442 208.835 214.618 206.052 214.793 203.328C214.969 200.604 215.233 197.88 215.613 195.155C216.346 190.088 217.488 185.02 219.451 180.245C220.916 179.278 222.41 178.37 223.991 177.579C223.728 178.136 223.464 178.663 223.2 179.249C224.314 178.429 225.544 177.726 226.891 177.198C232.223 175.06 238.638 175.119 244.175 176.349C248.364 177.286 252.435 179.19 255.453 182.237C255.248 181.036 255.013 179.893 254.72 178.722C255.921 179.249 257.122 179.805 258.294 180.362C258.47 181.299 258.646 182.237 258.792 183.174C259.524 188.183 259.964 193.339 260.023 198.465Z" fill="#CFD5E2"/>
<path d="M184.972 116.238C184.767 115.945 184.591 115.652 184.445 115.359C183.8 114.041 183.654 112.547 183.566 111.082C183.156 104.579 182.922 97.2265 184.386 90.8405C185.529 85.8313 192.588 84.7475 196.865 83.4C197.305 83.2535 197.744 83.1363 198.183 83.0192C200.732 82.3747 203.749 82.7848 206.122 81.8767C208.319 81.0272 210.077 79.3575 212.362 78.713C214.588 78.0979 216.931 78.4787 219.216 78.8888C220.652 79.1524 222.292 79.504 223.083 80.7343C223.522 81.408 223.61 82.2283 223.727 82.9899C224.255 87.1203 224.694 91.2506 225.046 95.4103C225.485 100.478 225.895 105.429 226.627 110.526C226.745 111.258 226.833 112.049 226.54 112.752C225.69 114.773 219.978 116.97 218.045 117.908C214.764 119.519 211.366 120.866 207.997 122.302C205.155 123.503 202.197 124.762 199.121 124.616C195.049 124.411 191.505 121.833 188.253 119.372C187.081 118.406 185.851 117.468 184.972 116.238Z" fill="#FFD6BE"/>
<path d="M185.597 92.1531C185.761 95.881 186.022 99.6088 186.251 103.369C187.428 104.71 188.802 105.822 190.339 106.705C199.756 112.002 211.071 111.087 218.657 103.304C223.333 98.5297 225.263 90.5181 222.287 84.1743C222.254 84.1416 222.254 84.0762 222.221 84.0435C220.259 80.0541 214.439 79.5308 210.842 79.1057C208.16 78.7787 205.348 78.648 202.569 78.6807C202.078 78.8115 201.588 78.9422 201.097 79.1057C196.519 80.5445 192.006 81.362 188.311 84.8283C187.167 85.9074 186.153 87.2481 185.761 88.785C185.466 89.8641 185.532 91.0086 185.597 92.1531Z" fill="#FFD6BE"/>
<path d="M237.493 50.5266C237.722 46.2428 237.166 42.1226 237.166 37.8389C237.133 30.5467 233.242 22.4043 229.023 16.5837C228.631 16.0278 228.206 15.5373 227.813 15.0468C224.511 11.1881 219.835 7.7546 214.929 6.28309C209.109 4.51728 201.98 5.95609 196.225 7.3295C191.614 8.40861 187.036 9.81472 182.883 12.1364C178.763 14.4582 175.101 17.7936 172.975 22.0119C171.732 24.4644 171.046 27.1459 170.653 29.86C170.163 33.0646 170.032 36.3346 169.934 39.572C169.836 42.1226 169.77 44.7059 169.705 47.2565C169.672 49.5783 170.097 51.8999 170.359 54.2217C171.405 63.999 171.831 74.0053 174.577 83.4557C176.049 88.3934 178.076 91.9578 181.314 95.9799C185.238 100.852 192.399 104.024 198.547 104.907C205.773 105.921 213.327 101.245 218.298 96.405C226.44 88.4589 233.111 77.537 235.858 66.517C236.414 64.2607 236.217 62.364 236.414 60.1077C236.675 57.1647 237.264 54.2217 237.46 51.246C237.46 51.0171 237.46 50.7555 237.493 50.5266Z" fill="#FFD6BE"/>
<path d="M242.136 56.5431C240.305 58.2435 237.721 61.3173 235.203 61.7751C228.663 62.985 225.491 55.8564 224.805 50.657C224.183 46.079 224.085 41.4683 224.02 36.8575C223.955 32.5084 223.889 27.8977 221.469 24.3006C221.273 24.0063 221.044 23.712 220.717 23.5812C220.456 23.4831 220.129 23.4831 219.834 23.4831C217.382 23.6139 214.929 24.2679 212.575 24.7257C210.286 25.1508 208.52 26.6551 206.656 27.9304C203.811 29.8597 200.574 31.2331 197.206 31.9525C195.178 32.3776 193.053 32.6065 191.254 33.5875C189.685 34.4377 188.475 35.7784 187.101 36.9556C185.532 38.329 184.551 40.0622 182.72 41.2394C181.019 42.3185 179.024 42.9398 176.997 43.0052C173.236 43.136 169.476 41.3375 167.22 38.329C166.271 37.0537 165.487 35.5495 164.048 34.8955C163.525 34.6666 162.969 34.5685 162.445 34.3396C161.922 34.078 161.497 33.6856 161.105 33.2278C159.241 31.0042 158.881 27.6688 160.156 25.1181C160.843 23.7447 161.922 22.6656 162.87 21.4557C165.486 18.2511 166.566 14.2616 169.116 11.0897C171.536 8.0813 175.395 6.34817 179.253 6.47898C180.659 6.54438 182.098 6.83869 183.504 6.54439C185.139 6.21739 186.48 5.17097 187.886 4.28806C190.666 2.48955 193.838 1.11614 197.14 0.919942C201.163 0.69104 204.988 2.19525 208.88 2.91466C212.084 3.50326 214.831 1.73746 218.199 2.84927C222.614 4.28808 225.393 8.89881 229.808 10.3049C231.41 10.8281 233.241 10.8935 234.582 11.9072C236.152 13.0844 236.675 15.1773 237.558 16.9104C239.88 21.423 245.308 24.2679 246.093 29.2711C246.583 32.4103 245.014 35.5168 244.719 38.6887C244.458 41.4029 245.144 44.1497 245.373 46.8638C245.733 50.4608 244.883 54.0252 242.136 56.5431Z" fill="#73370C"/>
<path d="M233.307 53.2404C240.534 47.9102 244.033 57.4587 242.855 63.3774C242.103 67.0726 240.207 70.408 238.212 73.5799C236.511 76.3267 233.503 80.12 229.775 78.158C228.336 77.3732 227.748 75.7708 227.388 74.2993C226.047 68.6422 227.192 61.677 230.233 56.6739C231.018 55.3332 232.064 54.156 233.307 53.2404Z" fill="#FFD6BE"/>
<path d="M212.935 47.3871C215.354 47.5506 217.741 48.27 219.867 49.6434C220.783 50.232 221.862 50.9841 222.679 51.7036C223.889 52.75 222.548 52.6845 221.764 52.4556C220.488 52.0632 219.311 51.4746 218.003 51.1803C216.695 50.886 215.354 50.7225 214.014 50.6571C211.267 50.559 208.553 50.9187 205.937 51.7362C205.741 51.8016 204.727 51.8997 204.792 51.3765C205.054 49.4799 205.806 48.924 207.343 48.27C208.847 47.6487 210.449 47.3544 212.019 47.3871C212.313 47.3544 212.608 47.3871 212.935 47.3871Z" fill="#572501"/>
<path d="M184.782 59.1283C184.448 57.459 183.669 55.4929 181.777 55.1961C180.85 55.0477 179.959 55.3445 179.366 56.1235C179.217 56.309 179.106 56.5687 178.995 56.7912C178.883 56.9396 178.809 57.1251 178.735 57.2735C178.216 58.3864 178.179 59.6477 178.55 60.8347C178.661 61.7993 179.032 62.7267 179.885 63.3573C180.664 63.9509 181.851 64.1363 182.741 63.617C182.964 63.5057 183.15 63.3203 183.298 63.1348C183.854 62.838 184.337 62.3186 184.596 61.7251C185.004 60.8719 184.967 59.9816 184.782 59.1283Z" fill="#0B0B2F"/>
<path d="M179.719 57.4296C179.802 57.1159 179.996 56.7463 180.467 56.6905C180.698 56.6626 180.92 56.7184 181.068 56.8648C181.105 56.8997 181.133 56.9485 181.16 56.9903C181.188 57.0182 181.206 57.0531 181.225 57.081C181.354 57.2902 181.363 57.5272 181.271 57.7504C181.243 57.9316 181.151 58.106 180.938 58.2245C180.744 58.336 180.449 58.3709 180.227 58.2733C180.172 58.2524 180.125 58.2175 180.088 58.1827C179.95 58.1269 179.83 58.0293 179.765 57.9177C179.663 57.7573 179.673 57.59 179.719 57.4296Z" fill="white"/>
<path d="M214.942 59.5002C214.794 57.7937 214.275 55.7534 212.42 55.234C211.529 54.9743 210.565 55.1969 209.934 55.8647C209.749 56.0501 209.637 56.2727 209.489 56.4953C209.378 56.6437 209.267 56.7921 209.155 56.9405C208.525 57.9792 208.302 59.2405 208.562 60.4276C208.562 61.3921 208.821 62.3566 209.6 63.0614C210.342 63.7291 211.455 64.063 212.383 63.655C212.605 63.5437 212.828 63.3953 213.013 63.2469C213.607 62.9872 214.163 62.5792 214.46 62.0227C214.979 61.2808 215.016 60.3905 214.942 59.5002Z" fill="#0B0B2F"/>
<path d="M211.624 57.418C211.588 57.1065 211.462 56.7342 211.009 56.6394C210.792 56.592 210.557 56.6326 210.403 56.7545C210.358 56.7883 210.331 56.829 210.295 56.8696C210.268 56.8967 210.241 56.9237 210.214 56.9508C210.06 57.1404 210.006 57.3706 210.069 57.5872C210.069 57.7632 210.132 57.9392 210.322 58.0679C210.503 58.1897 210.774 58.2507 211 58.1762C211.055 58.1559 211.109 58.1288 211.154 58.1017C211.299 58.0543 211.434 57.9799 211.507 57.8783C211.633 57.7429 211.642 57.5804 211.624 57.418Z" fill="white"/>
<path d="M200.018 106.902C200.05 106.934 200.081 106.934 200.113 106.965C200.081 106.965 200.05 106.934 200.018 106.902Z" fill="#EC8161"/>
<path d="M172.55 78.5174C172.648 78.125 172.844 77.7653 173.106 77.5037C174.348 76.2938 176.278 77.5691 177.52 78.1577C179.482 79.0733 181.673 79.76 183.831 79.4984C185.826 79.2695 187.33 78.0596 189.161 77.5037C191.058 76.9151 193.151 76.6535 195.146 76.5881C199.364 76.4246 203.517 77.3402 207.572 78.3866C210.253 79.0733 212.967 79.8908 215.747 79.7927C218.526 79.7273 221.437 78.5828 222.908 76.2284C223.366 75.509 223.66 74.6587 223.922 73.8412C226.309 66.3529 225.917 58.2759 227.355 50.5587C227.682 48.8255 228.729 48.5313 230.168 49.4469C231.312 50.1663 231.574 51.6705 231.672 52.9131C232.653 63.4099 232.358 74.953 229.742 85.1882C228.696 89.2431 227.323 93.3306 224.641 96.568C222.745 98.857 220.717 101.211 217.97 102.454C215.125 103.762 212.248 104.874 209.207 105.593C207.801 105.953 206.394 106.149 204.956 106.28C203.877 106.378 202.765 106.443 201.653 106.476C201.13 106.542 200.607 106.574 200.083 106.574C200.051 106.574 200.018 106.607 200.018 106.607C199.953 106.672 199.953 106.77 200.018 106.836C199.887 106.738 199.756 106.672 199.626 106.574C199.168 106.313 197.631 106.574 197.075 106.509C196.127 106.443 195.146 106.378 194.23 106.149C192.824 105.822 191.679 105.332 190.208 105.168C186.84 104.743 183.635 103.206 181.313 100.721C180.496 99.8379 179.776 98.8897 179.122 97.8759C176.31 93.6903 174.152 89.0142 173.171 84.0437C172.844 82.8338 172.092 80.1851 172.55 78.5174Z" fill="#73370C"/>
<path d="M190.306 82.8313C191.342 82.3034 195.159 84.2963 198.338 84.2115C200.808 84.1456 203.134 82.538 204.698 82.8312C205.505 83.1909 202.79 86.7554 197.702 86.7554C193.25 86.7554 189.434 83.5754 190.306 82.8313Z" fill="#FF9983"/>
<path d="M220.358 88.3278C220.848 87.0852 221.143 85.7772 221.208 84.4365C221.241 84.0441 222.222 84.0768 222.189 84.4365C222.124 85.8099 221.829 87.1833 221.306 88.4586C221.175 88.8183 220.194 88.7202 220.358 88.3278Z" fill="#B58461"/>
<path d="M211.267 92.0551C211.267 91.8589 211.594 91.7935 211.758 91.7935C211.889 91.7935 212.281 91.8589 212.248 92.0551C212.183 92.9707 212.15 93.8536 212.085 94.7692C212.085 94.9981 211.758 95.0308 211.594 95.0308C211.463 95.0308 211.071 94.9654 211.104 94.7692C211.169 93.8536 211.235 92.938 211.267 92.0551Z" fill="#B58461"/>
<path d="M190.928 98.1048C190.96 97.8759 191.255 97.8433 191.418 97.8433C191.549 97.8433 191.941 97.9086 191.909 98.1048C191.811 99.0204 191.909 99.936 192.203 100.819C192.268 101.015 192.04 101.146 191.843 101.146C191.68 101.179 191.287 101.146 191.222 100.95C190.928 100.067 190.83 99.0858 190.928 98.1048Z" fill="#B58461"/>
<path d="M200.869 99.9691C200.901 99.7402 201.196 99.7075 201.359 99.7075C201.49 99.7075 201.621 99.7402 201.719 99.7729C201.784 99.8056 201.882 99.871 201.85 99.9691C201.752 100.656 201.752 101.375 201.752 102.095C201.752 102.291 201.392 102.356 201.261 102.356C201.098 102.356 200.77 102.291 200.77 102.095C200.77 101.375 200.77 100.689 200.869 99.9691Z" fill="#B58461"/>
<path d="M181.379 86.725C181.412 86.5288 181.673 86.4634 181.87 86.4634C182 86.4634 182.393 86.5288 182.36 86.725C182.197 87.5098 182.197 88.3273 182.393 89.1121C182.458 89.3083 182.229 89.4391 182.033 89.4391C181.902 89.4718 181.772 89.4718 181.641 89.4064C181.575 89.3737 181.445 89.341 181.412 89.2429C181.248 88.3927 181.216 87.5425 181.379 86.725Z" fill="#B58461"/>
<path d="M196.716 91.794C196.716 91.6959 196.781 91.6305 196.846 91.5978C196.944 91.5324 197.075 91.4997 197.206 91.5324C197.37 91.5324 197.697 91.5978 197.697 91.794C197.729 92.5134 197.729 93.2001 197.664 93.9195C197.631 94.1484 197.337 94.1811 197.173 94.1811C197.043 94.1811 196.65 94.1157 196.683 93.9195C196.748 93.2001 196.781 92.4807 196.716 91.794Z" fill="#B58461"/>
<path d="M211.431 82.8339C211.431 82.605 211.758 82.5723 211.921 82.5723C212.085 82.5723 212.412 82.6377 212.412 82.8339C212.412 83.6841 212.248 84.5343 211.954 85.3518C211.921 85.4172 211.79 85.4826 211.725 85.5153C211.594 85.548 211.463 85.548 211.333 85.548C211.169 85.5153 210.908 85.4172 210.973 85.221C211.3 84.4689 211.431 83.6514 211.431 82.8339Z" fill="#B58461"/>
<path d="M215.158 101.441C215.322 101.146 215.453 100.852 215.551 100.525C215.583 100.329 215.616 100.1 215.649 99.871C215.649 99.6421 215.976 99.6094 216.139 99.6094C216.27 99.6094 216.401 99.6421 216.499 99.6748C216.564 99.7075 216.663 99.7729 216.63 99.871C216.597 100.46 216.434 101.048 216.139 101.571C216.041 101.768 215.714 101.8 215.518 101.768C215.387 101.735 215.06 101.637 215.158 101.441Z" fill="#B58461"/>
<path d="M207.376 101.146C207.376 100.917 207.703 100.884 207.866 100.884C208.03 100.884 208.357 100.95 208.357 101.146C208.324 101.931 208.259 102.716 208.161 103.5C208.128 103.729 207.834 103.762 207.67 103.762C207.539 103.762 207.147 103.697 207.18 103.5C207.278 102.748 207.343 101.931 207.376 101.146Z" fill="#B58461"/>
<path d="M202.667 92.0551C202.667 91.8262 202.994 91.7935 203.157 91.7935C203.288 91.7935 203.419 91.8262 203.517 91.8589C203.582 91.8916 203.68 91.957 203.648 92.0551C203.615 92.5783 203.582 93.1341 203.55 93.6573C203.55 93.8862 203.223 93.919 203.059 93.919C202.928 93.919 202.798 93.8863 202.699 93.8536C202.634 93.8209 202.536 93.7554 202.569 93.6573C202.601 93.1014 202.634 92.5783 202.667 92.0551Z" fill="#B58461"/>
<path d="M187.625 90.4199C187.657 90.3218 187.69 90.2891 187.755 90.2237C187.854 90.1583 187.984 90.1256 188.115 90.1583C188.246 90.1583 188.377 90.191 188.475 90.2237C188.54 90.2564 188.638 90.3218 188.606 90.4199C188.475 90.9758 188.475 91.5645 188.606 92.1204C188.606 92.1858 188.508 92.2839 188.475 92.3166C188.377 92.382 188.246 92.4146 188.115 92.3819C187.919 92.3819 187.657 92.3166 187.625 92.1204C187.494 91.5645 187.494 90.9758 187.625 90.4199Z" fill="#B58461"/>
<path d="M183.308 96.6005C183.341 96.4043 183.635 96.3389 183.799 96.3389C183.929 96.3389 184.322 96.4043 184.289 96.6005C184.224 97.3199 184.289 98.0066 184.453 98.726C184.485 98.7914 184.355 98.8895 184.322 98.9222C184.224 98.9876 184.093 99.0203 183.962 98.9876C183.766 98.9876 183.504 98.9222 183.472 98.726C183.308 98.0066 183.276 97.2872 183.308 96.6005Z" fill="#B58461"/>
<path d="M175.82 80.7084C175.82 80.4795 176.147 80.4468 176.31 80.4468C176.441 80.4468 176.834 80.5122 176.801 80.7084C176.768 81.4278 176.768 82.1799 176.866 82.8993C176.866 82.9974 176.768 83.0628 176.736 83.0955C176.637 83.1609 176.507 83.1936 176.376 83.1609C176.212 83.1609 175.918 83.0955 175.885 82.8993C175.787 82.1799 175.787 81.4605 175.82 80.7084Z" fill="#B58461"/>
<path d="M228.075 73.5794C228.075 73.3505 228.402 73.3179 228.566 73.3179C228.729 73.3179 229.056 73.3832 229.056 73.5794C228.991 74.6912 228.827 75.7703 228.5 76.8495C228.467 76.9149 228.337 76.9803 228.271 77.013C228.14 77.0457 228.01 77.0457 227.879 77.0457C227.715 77.013 227.454 76.9149 227.519 76.7187C227.846 75.6723 228.01 74.6258 228.075 73.5794Z" fill="#B58461"/>
<path d="M227.29 63.181C227.323 62.9521 227.617 62.9194 227.781 62.9194C227.911 62.9194 228.042 62.9521 228.14 62.9848C228.206 63.0175 228.304 63.0829 228.271 63.181C228.206 63.7042 228.14 64.2602 228.042 64.7834C228.01 64.9796 227.715 65.0449 227.552 65.0449C227.421 65.0449 227.29 65.0123 227.192 64.9796C227.127 64.9469 227.029 64.8815 227.061 64.7834C227.127 64.2602 227.225 63.7042 227.29 63.181Z" fill="#B58461"/>
<path d="M194.394 74.0376C193.118 73.9722 192.039 72.9258 191.614 71.7813C191.156 70.4733 191.647 69.0671 192.137 67.8245C192.988 65.7317 193.609 63.6062 193.707 61.3499C193.936 57.0334 192.563 52.6516 189.358 49.6432C188.998 49.3162 187.625 49.5778 188.115 50.0356C191.712 53.4364 192.857 58.6685 192.039 63.4427C191.81 64.6853 191.451 65.8625 190.993 67.0397C190.502 68.2496 189.947 69.4922 190.012 70.8329C190.11 73.1874 192.203 74.6916 194.394 74.8224C195.277 74.8551 195.277 74.0703 194.394 74.0376Z" fill="#C9855F"/>
<path d="M181.967 47.4846C179.646 47.7135 177.357 48.531 175.362 49.9698C174.479 50.5912 173.498 51.3759 172.713 52.0953C171.569 53.2072 172.877 53.0764 173.596 52.8148C174.806 52.3896 175.918 51.7356 177.193 51.4086C178.469 51.0816 179.744 50.8527 181.019 50.7546C183.668 50.5584 186.317 50.82 188.867 51.5394C189.063 51.6048 190.044 51.6702 189.946 51.1143C189.619 49.2504 188.9 48.6945 187.396 48.0732C185.924 47.4846 184.387 47.2884 182.85 47.3538C182.556 47.4519 182.262 47.4846 181.967 47.4846Z" fill="#572501"/>
<path d="M203.419 22.9592C201.391 26.1311 197.369 27.5045 193.903 25.9022C193.609 25.7714 193.184 25.7387 192.889 25.9022C192.66 26.033 192.595 26.3273 192.889 26.4581C197.108 28.4528 202.274 27.1448 204.792 23.1881C205.119 22.6976 203.713 22.5341 203.419 22.9592Z" fill="#CB9E7D"/>
<path d="M201.228 17.0082C200.901 16.9101 200.508 16.9428 200.247 17.139C198.677 18.447 196.584 19.0356 194.59 18.7086C194.328 18.6759 193.837 18.7086 193.707 18.9702C193.576 19.2645 194.001 19.428 194.197 19.4607C196.781 19.8858 199.462 19.1991 201.489 17.5314C201.751 17.3352 201.457 17.0736 201.228 17.0082Z" fill="#CB9E7D"/>
<path d="M172.648 30.2196C170.817 29.9907 168.888 29.3694 167.808 27.7344C166.86 26.3282 166.795 24.3335 168.135 23.1236C168.397 22.8947 168.103 22.6658 167.874 22.5677C167.579 22.4696 167.154 22.5023 166.893 22.6985C165.356 24.0719 165.356 26.3936 166.468 27.996C167.808 29.8599 170.032 30.6774 172.256 30.939C172.517 30.9717 173.008 30.9717 173.139 30.6774C173.269 30.4158 172.877 30.2523 172.648 30.2196Z" fill="#CB9E7D"/>
<path d="M184.06 26.0333C183.93 25.7389 183.406 25.7389 183.178 25.7716C181.771 25.9024 180.169 26.1313 178.894 25.4119C177.815 24.8233 177.03 23.6461 177.259 22.3708C177.357 21.8803 175.918 21.8149 175.82 22.3708C175.526 23.9077 176.67 25.3465 177.978 26.0005C179.711 26.8835 181.706 26.6873 183.57 26.4911C183.799 26.4911 184.159 26.3276 184.06 26.0333Z" fill="#CB9E7D"/>
<path d="M240.24 29.1077C239.978 28.6499 238.572 28.8461 238.866 29.3039C240.763 32.4105 240.959 36.3672 239.357 39.6372C239.095 40.1604 240.501 40.3239 240.73 39.8334C242.398 36.4653 242.234 32.3124 240.24 29.1077Z" fill="#CB9E7D"/>
<path d="M233.601 33.7833C233.405 33.2928 231.966 33.4236 232.228 33.9795C233.307 36.5628 232.391 39.702 230.102 41.337C229.808 41.5332 230.168 41.8275 230.364 41.8929C230.691 41.991 231.051 41.9583 231.345 41.7621C233.797 39.9963 234.746 36.5628 233.601 33.7833Z" fill="#CB9E7D"/>
</g>
<defs>
<radialGradient id="paint0_radial_1369_40494" cx="0" cy="0" r="1" gradientUnits="userSpaceOnUse" gradientTransform="translate(283.177 308.445) rotate(-129.019) scale(288.683 288.683)">
<stop stop-color="#0070B3"/>
<stop offset="1" stop-color="#009CFA"/>
</radialGradient>
<radialGradient id="paint1_radial_1369_40494" cx="0" cy="0" r="1" gradientUnits="userSpaceOnUse" gradientTransform="translate(283.177 308.446) rotate(-128.747) scale(324.92 324.92)">
<stop stop-color="#0070B3"/>
<stop offset="1" stop-color="#009CFA"/>
</radialGradient>
</defs>
</svg>
